<?xml version="1.0" encoding="utf-8" standalone="no"?>
<!DOCTYPE svg PUBLIC "-//W3C//DTD SVG 1.1//EN"
  "http://www.w3.org/Graphics/SVG/1.1/DTD/svg11.dtd">
<svg xmlns:xlink="http://www.w3.org/1999/xlink" width="2160pt" height="720pt" viewBox="0 0 2160 720" xmlns="http://www.w3.org/2000/svg" version="1.1">
 <metadata>
  <rdf:RDF xmlns:dc="http://purl.org/dc/elements/1.1/" xmlns:cc="http://creativecommons.org/ns#" xmlns:rdf="http://www.w3.org/1999/02/22-rdf-syntax-ns#">
   <cc:Work>
    <dc:type rdf:resource="http://purl.org/dc/dcmitype/StillImage"/>
    <dc:date>2023-09-19T13:27:47.038044</dc:date>
    <dc:format>image/svg+xml</dc:format>
    <dc:creator>
     <cc:Agent>
      <dc:title>Matplotlib v3.8.0, https://matplotlib.org/</dc:title>
     </cc:Agent>
    </dc:creator>
   </cc:Work>
  </rdf:RDF>
 </metadata>
 <defs>
  <style type="text/css">*{stroke-linejoin: round; stroke-linecap: butt}</style>
 </defs>
 <g id="figure_1">
  <g id="patch_1">
   <path d="M 0 720 
L 2160 720 
L 2160 0 
L 0 0 
z
" style="fill: #ffffff"/>
  </g>
  <g id="axes_1">
   <g id="patch_2">
    <path d="M 474.07446 594.93795 
Q 559.838352 523.46804 646.461142 451.282382 
" style="fill: none; stroke: #000000; stroke-linecap: round"/>
    <path d="M 481.039666 593.299078 
L 474.07446 594.93795 
L 476.942486 588.382462 
" style="fill: none; stroke: #000000; stroke-linecap: round"/>
   </g>
   <g id="text_1">
    <g id="patch_3">
     <path d="M 365.53125 662.42625 
L 498.46875 662.42625 
L 498.46875 597.43375 
L 365.53125 597.43375 
z
" style="fill: #ffffff; stroke: #000000; stroke-linejoin: miter"/>
    </g>
    <!-- entropy = 0.588 -->
    <g transform="translate(373.53125 617.07375) scale(0.16 -0.16)">
     <defs>
      <path id="Arial-BoldMT-65" d="M 2381 1056 
L 3256 909 
Q 3088 428 2723 176 
Q 2359 -75 1813 -75 
Q 947 -75 531 491 
Q 203 944 203 1634 
Q 203 2459 634 2926 
Q 1066 3394 1725 3394 
Q 2466 3394 2894 2905 
Q 3322 2416 3303 1406 
L 1103 1406 
Q 1113 1016 1316 798 
Q 1519 581 1822 581 
Q 2028 581 2168 693 
Q 2309 806 2381 1056 
z
M 2431 1944 
Q 2422 2325 2234 2523 
Q 2047 2722 1778 2722 
Q 1491 2722 1303 2513 
Q 1116 2303 1119 1944 
L 2431 1944 
z
" transform="scale(0.015625)"/>
      <path id="Arial-BoldMT-6e" d="M 3478 0 
L 2600 0 
L 2600 1694 
Q 2600 2231 2544 2389 
Q 2488 2547 2361 2634 
Q 2234 2722 2056 2722 
Q 1828 2722 1647 2597 
Q 1466 2472 1398 2265 
Q 1331 2059 1331 1503 
L 1331 0 
L 453 0 
L 453 3319 
L 1269 3319 
L 1269 2831 
Q 1703 3394 2363 3394 
Q 2653 3394 2893 3289 
Q 3134 3184 3257 3021 
Q 3381 2859 3429 2653 
Q 3478 2447 3478 2063 
L 3478 0 
z
" transform="scale(0.015625)"/>
      <path id="Arial-BoldMT-74" d="M 1981 3319 
L 1981 2619 
L 1381 2619 
L 1381 1281 
Q 1381 875 1398 808 
Q 1416 741 1477 697 
Q 1538 653 1625 653 
Q 1747 653 1978 738 
L 2053 56 
Q 1747 -75 1359 -75 
Q 1122 -75 931 4 
Q 741 84 652 211 
Q 563 338 528 553 
Q 500 706 500 1172 
L 500 2619 
L 97 2619 
L 97 3319 
L 500 3319 
L 500 3978 
L 1381 4491 
L 1381 3319 
L 1981 3319 
z
" transform="scale(0.015625)"/>
      <path id="Arial-BoldMT-72" d="M 1300 0 
L 422 0 
L 422 3319 
L 1238 3319 
L 1238 2847 
Q 1447 3181 1614 3287 
Q 1781 3394 1994 3394 
Q 2294 3394 2572 3228 
L 2300 2463 
Q 2078 2606 1888 2606 
Q 1703 2606 1575 2504 
Q 1447 2403 1373 2137 
Q 1300 1872 1300 1025 
L 1300 0 
z
" transform="scale(0.015625)"/>
      <path id="Arial-BoldMT-6f" d="M 256 1706 
Q 256 2144 472 2553 
Q 688 2963 1083 3178 
Q 1478 3394 1966 3394 
Q 2719 3394 3200 2905 
Q 3681 2416 3681 1669 
Q 3681 916 3195 420 
Q 2709 -75 1972 -75 
Q 1516 -75 1102 131 
Q 688 338 472 736 
Q 256 1134 256 1706 
z
M 1156 1659 
Q 1156 1166 1390 903 
Q 1625 641 1969 641 
Q 2313 641 2545 903 
Q 2778 1166 2778 1666 
Q 2778 2153 2545 2415 
Q 2313 2678 1969 2678 
Q 1625 2678 1390 2415 
Q 1156 2153 1156 1659 
z
" transform="scale(0.015625)"/>
      <path id="Arial-BoldMT-70" d="M 434 3319 
L 1253 3319 
L 1253 2831 
Q 1413 3081 1684 3237 
Q 1956 3394 2288 3394 
Q 2866 3394 3269 2941 
Q 3672 2488 3672 1678 
Q 3672 847 3265 386 
Q 2859 -75 2281 -75 
Q 2006 -75 1782 34 
Q 1559 144 1313 409 
L 1313 -1263 
L 434 -1263 
L 434 3319 
z
M 1303 1716 
Q 1303 1156 1525 889 
Q 1747 622 2066 622 
Q 2372 622 2575 867 
Q 2778 1113 2778 1672 
Q 2778 2194 2568 2447 
Q 2359 2700 2050 2700 
Q 1728 2700 1515 2451 
Q 1303 2203 1303 1716 
z
" transform="scale(0.015625)"/>
      <path id="Arial-BoldMT-79" d="M 44 3319 
L 978 3319 
L 1772 963 
L 2547 3319 
L 3456 3319 
L 2284 125 
L 2075 -453 
Q 1959 -744 1854 -897 
Q 1750 -1050 1614 -1145 
Q 1478 -1241 1279 -1294 
Q 1081 -1347 831 -1347 
Q 578 -1347 334 -1294 
L 256 -606 
Q 463 -647 628 -647 
Q 934 -647 1081 -467 
Q 1228 -288 1306 -9 
L 44 3319 
z
" transform="scale(0.015625)"/>
      <path id="Arial-BoldMT-20" transform="scale(0.015625)"/>
      <path id="Arial-BoldMT-3d" d="M 266 2550 
L 266 3356 
L 3469 3356 
L 3469 2550 
L 266 2550 
z
M 266 1163 
L 266 1972 
L 3469 1972 
L 3469 1163 
L 266 1163 
z
" transform="scale(0.015625)"/>
      <path id="Arial-BoldMT-30" d="M 1756 4600 
Q 2422 4600 2797 4125 
Q 3244 3563 3244 2259 
Q 3244 959 2794 391 
Q 2422 -78 1756 -78 
Q 1088 -78 678 436 
Q 269 950 269 2269 
Q 269 3563 719 4131 
Q 1091 4600 1756 4600 
z
M 1756 3872 
Q 1597 3872 1472 3770 
Q 1347 3669 1278 3406 
Q 1188 3066 1188 2259 
Q 1188 1453 1269 1151 
Q 1350 850 1473 750 
Q 1597 650 1756 650 
Q 1916 650 2041 751 
Q 2166 853 2234 1116 
Q 2325 1453 2325 2259 
Q 2325 3066 2244 3367 
Q 2163 3669 2039 3770 
Q 1916 3872 1756 3872 
z
" transform="scale(0.015625)"/>
      <path id="Arial-BoldMT-2e" d="M 459 0 
L 459 878 
L 1338 878 
L 1338 0 
L 459 0 
z
" transform="scale(0.015625)"/>
      <path id="Arial-BoldMT-35" d="M 284 1178 
L 1159 1269 
Q 1197 972 1381 798 
Q 1566 625 1806 625 
Q 2081 625 2272 848 
Q 2463 1072 2463 1522 
Q 2463 1944 2273 2155 
Q 2084 2366 1781 2366 
Q 1403 2366 1103 2031 
L 391 2134 
L 841 4519 
L 3163 4519 
L 3163 3697 
L 1506 3697 
L 1369 2919 
Q 1663 3066 1969 3066 
Q 2553 3066 2959 2641 
Q 3366 2216 3366 1538 
Q 3366 972 3038 528 
Q 2591 -78 1797 -78 
Q 1163 -78 763 262 
Q 363 603 284 1178 
z
" transform="scale(0.015625)"/>
      <path id="Arial-BoldMT-38" d="M 1025 2472 
Q 684 2616 529 2867 
Q 375 3119 375 3419 
Q 375 3931 733 4265 
Q 1091 4600 1750 4600 
Q 2403 4600 2764 4265 
Q 3125 3931 3125 3419 
Q 3125 3100 2959 2851 
Q 2794 2603 2494 2472 
Q 2875 2319 3073 2025 
Q 3272 1731 3272 1347 
Q 3272 713 2867 316 
Q 2463 -81 1791 -81 
Q 1166 -81 750 247 
Q 259 634 259 1309 
Q 259 1681 443 1992 
Q 628 2303 1025 2472 
z
M 1206 3356 
Q 1206 3094 1354 2947 
Q 1503 2800 1750 2800 
Q 2000 2800 2150 2948 
Q 2300 3097 2300 3359 
Q 2300 3606 2151 3754 
Q 2003 3903 1759 3903 
Q 1506 3903 1356 3753 
Q 1206 3603 1206 3356 
z
M 1125 1394 
Q 1125 1031 1311 828 
Q 1497 625 1775 625 
Q 2047 625 2225 820 
Q 2403 1016 2403 1384 
Q 2403 1706 2222 1901 
Q 2041 2097 1763 2097 
Q 1441 2097 1283 1875 
Q 1125 1653 1125 1394 
z
" transform="scale(0.015625)"/>
     </defs>
     <use xlink:href="#Arial-BoldMT-65"/>
     <use xlink:href="#Arial-BoldMT-6e" x="55.615234"/>
     <use xlink:href="#Arial-BoldMT-74" x="116.699219"/>
     <use xlink:href="#Arial-BoldMT-72" x="150"/>
     <use xlink:href="#Arial-BoldMT-6f" x="188.916016"/>
     <use xlink:href="#Arial-BoldMT-70" x="250"/>
     <use xlink:href="#Arial-BoldMT-79" x="311.083984"/>
     <use xlink:href="#Arial-BoldMT-20" x="366.699219"/>
     <use xlink:href="#Arial-BoldMT-3d" x="394.482422"/>
     <use xlink:href="#Arial-BoldMT-20" x="452.880859"/>
     <use xlink:href="#Arial-BoldMT-30" x="480.664062"/>
     <use xlink:href="#Arial-BoldMT-2e" x="536.279297"/>
     <use xlink:href="#Arial-BoldMT-35" x="564.0625"/>
     <use xlink:href="#Arial-BoldMT-38" x="619.677734"/>
     <use xlink:href="#Arial-BoldMT-38" x="675.292969"/>
    </g>
    <!-- samples = 113 -->
    <g transform="translate(377.95875 634.24125) scale(0.16 -0.16)">
     <defs>
      <path id="Arial-BoldMT-73" d="M 150 947 
L 1031 1081 
Q 1088 825 1259 692 
Q 1431 559 1741 559 
Q 2081 559 2253 684 
Q 2369 772 2369 919 
Q 2369 1019 2306 1084 
Q 2241 1147 2013 1200 
Q 950 1434 666 1628 
Q 272 1897 272 2375 
Q 272 2806 612 3100 
Q 953 3394 1669 3394 
Q 2350 3394 2681 3172 
Q 3013 2950 3138 2516 
L 2309 2363 
Q 2256 2556 2107 2659 
Q 1959 2763 1684 2763 
Q 1338 2763 1188 2666 
Q 1088 2597 1088 2488 
Q 1088 2394 1175 2328 
Q 1294 2241 1995 2081 
Q 2697 1922 2975 1691 
Q 3250 1456 3250 1038 
Q 3250 581 2869 253 
Q 2488 -75 1741 -75 
Q 1063 -75 667 200 
Q 272 475 150 947 
z
" transform="scale(0.015625)"/>
      <path id="Arial-BoldMT-61" d="M 1116 2306 
L 319 2450 
Q 453 2931 781 3162 
Q 1109 3394 1756 3394 
Q 2344 3394 2631 3255 
Q 2919 3116 3036 2902 
Q 3153 2688 3153 2116 
L 3144 1091 
Q 3144 653 3186 445 
Q 3228 238 3344 0 
L 2475 0 
Q 2441 88 2391 259 
Q 2369 338 2359 363 
Q 2134 144 1878 34 
Q 1622 -75 1331 -75 
Q 819 -75 523 203 
Q 228 481 228 906 
Q 228 1188 362 1408 
Q 497 1628 739 1745 
Q 981 1863 1438 1950 
Q 2053 2066 2291 2166 
L 2291 2253 
Q 2291 2506 2166 2614 
Q 2041 2722 1694 2722 
Q 1459 2722 1328 2630 
Q 1197 2538 1116 2306 
z
M 2291 1594 
Q 2122 1538 1756 1459 
Q 1391 1381 1278 1306 
Q 1106 1184 1106 997 
Q 1106 813 1243 678 
Q 1381 544 1594 544 
Q 1831 544 2047 700 
Q 2206 819 2256 991 
Q 2291 1103 2291 1419 
L 2291 1594 
z
" transform="scale(0.015625)"/>
      <path id="Arial-BoldMT-6d" d="M 394 3319 
L 1203 3319 
L 1203 2866 
Q 1638 3394 2238 3394 
Q 2556 3394 2790 3262 
Q 3025 3131 3175 2866 
Q 3394 3131 3647 3262 
Q 3900 3394 4188 3394 
Q 4553 3394 4806 3245 
Q 5059 3097 5184 2809 
Q 5275 2597 5275 2122 
L 5275 0 
L 4397 0 
L 4397 1897 
Q 4397 2391 4306 2534 
Q 4184 2722 3931 2722 
Q 3747 2722 3584 2609 
Q 3422 2497 3350 2280 
Q 3278 2063 3278 1594 
L 3278 0 
L 2400 0 
L 2400 1819 
Q 2400 2303 2353 2443 
Q 2306 2584 2207 2653 
Q 2109 2722 1941 2722 
Q 1738 2722 1575 2612 
Q 1413 2503 1342 2297 
Q 1272 2091 1272 1613 
L 1272 0 
L 394 0 
L 394 3319 
z
" transform="scale(0.015625)"/>
      <path id="Arial-BoldMT-6c" d="M 459 0 
L 459 4581 
L 1338 4581 
L 1338 0 
L 459 0 
z
" transform="scale(0.015625)"/>
      <path id="Arial-BoldMT-31" d="M 2519 0 
L 1641 0 
L 1641 3309 
Q 1159 2859 506 2644 
L 506 3441 
Q 850 3553 1253 3867 
Q 1656 4181 1806 4600 
L 2519 4600 
L 2519 0 
z
" transform="scale(0.015625)"/>
      <path id="Arial-BoldMT-33" d="M 241 1216 
L 1091 1319 
Q 1131 994 1309 822 
Q 1488 650 1741 650 
Q 2013 650 2198 856 
Q 2384 1063 2384 1413 
Q 2384 1744 2206 1937 
Q 2028 2131 1772 2131 
Q 1603 2131 1369 2066 
L 1466 2781 
Q 1822 2772 2009 2936 
Q 2197 3100 2197 3372 
Q 2197 3603 2059 3740 
Q 1922 3878 1694 3878 
Q 1469 3878 1309 3722 
Q 1150 3566 1116 3266 
L 306 3403 
Q 391 3819 561 4067 
Q 731 4316 1036 4458 
Q 1341 4600 1719 4600 
Q 2366 4600 2756 4188 
Q 3078 3850 3078 3425 
Q 3078 2822 2419 2463 
Q 2813 2378 3048 2084 
Q 3284 1791 3284 1375 
Q 3284 772 2843 347 
Q 2403 -78 1747 -78 
Q 1125 -78 715 280 
Q 306 638 241 1216 
z
" transform="scale(0.015625)"/>
     </defs>
     <use xlink:href="#Arial-BoldMT-73"/>
     <use xlink:href="#Arial-BoldMT-61" x="55.615234"/>
     <use xlink:href="#Arial-BoldMT-6d" x="111.230469"/>
     <use xlink:href="#Arial-BoldMT-70" x="200.146484"/>
     <use xlink:href="#Arial-BoldMT-6c" x="261.230469"/>
     <use xlink:href="#Arial-BoldMT-65" x="289.013672"/>
     <use xlink:href="#Arial-BoldMT-73" x="344.628906"/>
     <use xlink:href="#Arial-BoldMT-20" x="400.244141"/>
     <use xlink:href="#Arial-BoldMT-3d" x="428.027344"/>
     <use xlink:href="#Arial-BoldMT-20" x="486.425781"/>
     <use xlink:href="#Arial-BoldMT-31" x="514.208984"/>
     <use xlink:href="#Arial-BoldMT-31" x="564.324219"/>
     <use xlink:href="#Arial-BoldMT-33" x="619.939453"/>
    </g>
    <!-- value = [97, 16] -->
    <g transform="translate(374.86 651.19875) scale(0.16 -0.16)">
     <defs>
      <path id="Arial-BoldMT-76" d="M 1372 0 
L 34 3319 
L 956 3319 
L 1581 1625 
L 1763 1059 
Q 1834 1275 1853 1344 
Q 1897 1484 1947 1625 
L 2578 3319 
L 3481 3319 
L 2163 0 
L 1372 0 
z
" transform="scale(0.015625)"/>
      <path id="Arial-BoldMT-75" d="M 2644 0 
L 2644 497 
Q 2463 231 2167 78 
Q 1872 -75 1544 -75 
Q 1209 -75 943 72 
Q 678 219 559 484 
Q 441 750 441 1219 
L 441 3319 
L 1319 3319 
L 1319 1794 
Q 1319 1094 1367 936 
Q 1416 778 1544 686 
Q 1672 594 1869 594 
Q 2094 594 2272 717 
Q 2450 841 2515 1023 
Q 2581 1206 2581 1919 
L 2581 3319 
L 3459 3319 
L 3459 0 
L 2644 0 
z
" transform="scale(0.015625)"/>
      <path id="Arial-BoldMT-5b" d="M 456 -1291 
L 456 4581 
L 2013 4581 
L 2013 3891 
L 1291 3891 
L 1291 -600 
L 2013 -600 
L 2013 -1291 
L 456 -1291 
z
" transform="scale(0.015625)"/>
      <path id="Arial-BoldMT-39" d="M 291 1059 
L 1141 1153 
Q 1172 894 1303 769 
Q 1434 644 1650 644 
Q 1922 644 2112 894 
Q 2303 1144 2356 1931 
Q 2025 1547 1528 1547 
Q 988 1547 595 1964 
Q 203 2381 203 3050 
Q 203 3747 617 4173 
Q 1031 4600 1672 4600 
Q 2369 4600 2816 4061 
Q 3263 3522 3263 2288 
Q 3263 1031 2797 475 
Q 2331 -81 1584 -81 
Q 1047 -81 715 205 
Q 384 491 291 1059 
z
M 2278 2978 
Q 2278 3403 2083 3637 
Q 1888 3872 1631 3872 
Q 1388 3872 1227 3680 
Q 1066 3488 1066 3050 
Q 1066 2606 1241 2398 
Q 1416 2191 1678 2191 
Q 1931 2191 2104 2391 
Q 2278 2591 2278 2978 
z
" transform="scale(0.015625)"/>
      <path id="Arial-BoldMT-37" d="M 272 3703 
L 272 4519 
L 3275 4519 
L 3275 3881 
Q 2903 3516 2518 2831 
Q 2134 2147 1932 1376 
Q 1731 606 1734 0 
L 888 0 
Q 909 950 1279 1937 
Q 1650 2925 2269 3703 
L 272 3703 
z
" transform="scale(0.015625)"/>
      <path id="Arial-BoldMT-2c" d="M 438 878 
L 1316 878 
L 1316 250 
Q 1316 -131 1250 -351 
Q 1184 -572 1001 -747 
Q 819 -922 538 -1022 
L 366 -659 
Q 631 -572 743 -419 
Q 856 -266 863 0 
L 438 0 
L 438 878 
z
" transform="scale(0.015625)"/>
      <path id="Arial-BoldMT-36" d="M 3247 3459 
L 2397 3366 
Q 2366 3628 2234 3753 
Q 2103 3878 1894 3878 
Q 1616 3878 1423 3628 
Q 1231 3378 1181 2588 
Q 1509 2975 1997 2975 
Q 2547 2975 2939 2556 
Q 3331 2138 3331 1475 
Q 3331 772 2918 347 
Q 2506 -78 1859 -78 
Q 1166 -78 719 461 
Q 272 1000 272 2228 
Q 272 3488 737 4044 
Q 1203 4600 1947 4600 
Q 2469 4600 2811 4308 
Q 3153 4016 3247 3459 
z
M 1256 1544 
Q 1256 1116 1453 883 
Q 1650 650 1903 650 
Q 2147 650 2309 840 
Q 2472 1031 2472 1466 
Q 2472 1913 2297 2120 
Q 2122 2328 1859 2328 
Q 1606 2328 1431 2129 
Q 1256 1931 1256 1544 
z
" transform="scale(0.015625)"/>
      <path id="Arial-BoldMT-5d" d="M 1675 4581 
L 1675 -1291 
L 119 -1291 
L 119 -600 
L 841 -600 
L 841 3897 
L 119 3897 
L 119 4581 
L 1675 4581 
z
" transform="scale(0.015625)"/>
     </defs>
     <use xlink:href="#Arial-BoldMT-76"/>
     <use xlink:href="#Arial-BoldMT-61" x="55.615234"/>
     <use xlink:href="#Arial-BoldMT-6c" x="111.230469"/>
     <use xlink:href="#Arial-BoldMT-75" x="139.013672"/>
     <use xlink:href="#Arial-BoldMT-65" x="200.097656"/>
     <use xlink:href="#Arial-BoldMT-20" x="255.712891"/>
     <use xlink:href="#Arial-BoldMT-3d" x="283.496094"/>
     <use xlink:href="#Arial-BoldMT-20" x="341.894531"/>
     <use xlink:href="#Arial-BoldMT-5b" x="369.677734"/>
     <use xlink:href="#Arial-BoldMT-39" x="402.978516"/>
     <use xlink:href="#Arial-BoldMT-37" x="458.59375"/>
     <use xlink:href="#Arial-BoldMT-2c" x="514.208984"/>
     <use xlink:href="#Arial-BoldMT-20" x="541.992188"/>
     <use xlink:href="#Arial-BoldMT-31" x="569.775391"/>
     <use xlink:href="#Arial-BoldMT-36" x="625.390625"/>
     <use xlink:href="#Arial-BoldMT-5d" x="681.005859"/>
    </g>
   </g>
   <g id="patch_4">
    <path d="M 827.29806 622.080414 
Q 738.773746 537.119648 649.442794 451.384715 
" style="fill: none; stroke: #000000; stroke-linecap: round"/>
    <path d="M 824.896388 615.340089 
L 827.29806 622.080414 
L 820.464797 619.957556 
" style="fill: none; stroke: #000000; stroke-linecap: round"/>
   </g>
   <g id="text_2">
    <g id="patch_5">
     <path d="M 797.53125 689.731167 
L 930.46875 689.731167 
L 930.46875 624.738667 
L 797.53125 624.738667 
z
" style="fill: #ffffff; stroke: #000000; stroke-linejoin: miter"/>
    </g>
    <!-- entropy = 0.972 -->
    <g transform="translate(805.53125 644.378667) scale(0.16 -0.16)">
     <defs>
      <path id="Arial-BoldMT-32" d="M 3238 816 
L 3238 0 
L 159 0 
Q 209 463 459 877 
Q 709 1291 1447 1975 
Q 2041 2528 2175 2725 
Q 2356 2997 2356 3263 
Q 2356 3556 2198 3714 
Q 2041 3872 1763 3872 
Q 1488 3872 1325 3706 
Q 1163 3541 1138 3156 
L 263 3244 
Q 341 3969 753 4284 
Q 1166 4600 1784 4600 
Q 2463 4600 2850 4234 
Q 3238 3869 3238 3325 
Q 3238 3016 3127 2736 
Q 3016 2456 2775 2150 
Q 2616 1947 2200 1565 
Q 1784 1184 1673 1059 
Q 1563 934 1494 816 
L 3238 816 
z
" transform="scale(0.015625)"/>
     </defs>
     <use xlink:href="#Arial-BoldMT-65"/>
     <use xlink:href="#Arial-BoldMT-6e" x="55.615234"/>
     <use xlink:href="#Arial-BoldMT-74" x="116.699219"/>
     <use xlink:href="#Arial-BoldMT-72" x="150"/>
     <use xlink:href="#Arial-BoldMT-6f" x="188.916016"/>
     <use xlink:href="#Arial-BoldMT-70" x="250"/>
     <use xlink:href="#Arial-BoldMT-79" x="311.083984"/>
     <use xlink:href="#Arial-BoldMT-20" x="366.699219"/>
     <use xlink:href="#Arial-BoldMT-3d" x="394.482422"/>
     <use xlink:href="#Arial-BoldMT-20" x="452.880859"/>
     <use xlink:href="#Arial-BoldMT-30" x="480.664062"/>
     <use xlink:href="#Arial-BoldMT-2e" x="536.279297"/>
     <use xlink:href="#Arial-BoldMT-39" x="564.0625"/>
     <use xlink:href="#Arial-BoldMT-37" x="619.677734"/>
     <use xlink:href="#Arial-BoldMT-32" x="675.292969"/>
    </g>
    <!-- samples = 107 -->
    <g transform="translate(809.51875 661.546167) scale(0.16 -0.16)">
     <use xlink:href="#Arial-BoldMT-73"/>
     <use xlink:href="#Arial-BoldMT-61" x="55.615234"/>
     <use xlink:href="#Arial-BoldMT-6d" x="111.230469"/>
     <use xlink:href="#Arial-BoldMT-70" x="200.146484"/>
     <use xlink:href="#Arial-BoldMT-6c" x="261.230469"/>
     <use xlink:href="#Arial-BoldMT-65" x="289.013672"/>
     <use xlink:href="#Arial-BoldMT-73" x="344.628906"/>
     <use xlink:href="#Arial-BoldMT-20" x="400.244141"/>
     <use xlink:href="#Arial-BoldMT-3d" x="428.027344"/>
     <use xlink:href="#Arial-BoldMT-20" x="486.425781"/>
     <use xlink:href="#Arial-BoldMT-31" x="514.208984"/>
     <use xlink:href="#Arial-BoldMT-30" x="569.824219"/>
     <use xlink:href="#Arial-BoldMT-37" x="625.439453"/>
    </g>
    <!-- value = [64, 43] -->
    <g transform="translate(806.86 678.503667) scale(0.16 -0.16)">
     <defs>
      <path id="Arial-BoldMT-34" d="M 1994 0 
L 1994 922 
L 119 922 
L 119 1691 
L 2106 4600 
L 2844 4600 
L 2844 1694 
L 3413 1694 
L 3413 922 
L 2844 922 
L 2844 0 
L 1994 0 
z
M 1994 1694 
L 1994 3259 
L 941 1694 
L 1994 1694 
z
" transform="scale(0.015625)"/>
     </defs>
     <use xlink:href="#Arial-BoldMT-76"/>
     <use xlink:href="#Arial-BoldMT-61" x="55.615234"/>
     <use xlink:href="#Arial-BoldMT-6c" x="111.230469"/>
     <use xlink:href="#Arial-BoldMT-75" x="139.013672"/>
     <use xlink:href="#Arial-BoldMT-65" x="200.097656"/>
     <use xlink:href="#Arial-BoldMT-20" x="255.712891"/>
     <use xlink:href="#Arial-BoldMT-3d" x="283.496094"/>
     <use xlink:href="#Arial-BoldMT-20" x="341.894531"/>
     <use xlink:href="#Arial-BoldMT-5b" x="369.677734"/>
     <use xlink:href="#Arial-BoldMT-36" x="402.978516"/>
     <use xlink:href="#Arial-BoldMT-34" x="458.59375"/>
     <use xlink:href="#Arial-BoldMT-2c" x="514.208984"/>
     <use xlink:href="#Arial-BoldMT-20" x="541.992188"/>
     <use xlink:href="#Arial-BoldMT-34" x="569.775391"/>
     <use xlink:href="#Arial-BoldMT-33" x="625.390625"/>
     <use xlink:href="#Arial-BoldMT-5d" x="681.005859"/>
    </g>
   </g>
   <g id="patch_6">
    <path d="M 1342.024574 579.075527 
Q 1425.770584 515.480685 1510.406997 451.20969 
" style="fill: none; stroke: #000000; stroke-linecap: round"/>
    <path d="M 1349.056801 577.753488 
L 1342.024574 579.075527 
L 1345.186279 572.656522 
" style="fill: none; stroke: #000000; stroke-linecap: round"/>
   </g>
   <g id="text_3">
    <g id="patch_7">
     <path d="M 1229.53125 646.451806 
L 1362.46875 646.451806 
L 1362.46875 581.459306 
L 1229.53125 581.459306 
z
" style="fill: #ffffff; stroke: #000000; stroke-linejoin: miter"/>
    </g>
    <!-- entropy = 0.873 -->
    <g transform="translate(1237.53125 601.099306) scale(0.16 -0.16)">
     <use xlink:href="#Arial-BoldMT-65"/>
     <use xlink:href="#Arial-BoldMT-6e" x="55.615234"/>
     <use xlink:href="#Arial-BoldMT-74" x="116.699219"/>
     <use xlink:href="#Arial-BoldMT-72" x="150"/>
     <use xlink:href="#Arial-BoldMT-6f" x="188.916016"/>
     <use xlink:href="#Arial-BoldMT-70" x="250"/>
     <use xlink:href="#Arial-BoldMT-79" x="311.083984"/>
     <use xlink:href="#Arial-BoldMT-20" x="366.699219"/>
     <use xlink:href="#Arial-BoldMT-3d" x="394.482422"/>
     <use xlink:href="#Arial-BoldMT-20" x="452.880859"/>
     <use xlink:href="#Arial-BoldMT-30" x="480.664062"/>
     <use xlink:href="#Arial-BoldMT-2e" x="536.279297"/>
     <use xlink:href="#Arial-BoldMT-38" x="564.0625"/>
     <use xlink:href="#Arial-BoldMT-37" x="619.677734"/>
     <use xlink:href="#Arial-BoldMT-33" x="675.292969"/>
    </g>
    <!-- samples = 58 -->
    <g transform="translate(1245.9675 618.266806) scale(0.16 -0.16)">
     <use xlink:href="#Arial-BoldMT-73"/>
     <use xlink:href="#Arial-BoldMT-61" x="55.615234"/>
     <use xlink:href="#Arial-BoldMT-6d" x="111.230469"/>
     <use xlink:href="#Arial-BoldMT-70" x="200.146484"/>
     <use xlink:href="#Arial-BoldMT-6c" x="261.230469"/>
     <use xlink:href="#Arial-BoldMT-65" x="289.013672"/>
     <use xlink:href="#Arial-BoldMT-73" x="344.628906"/>
     <use xlink:href="#Arial-BoldMT-20" x="400.244141"/>
     <use xlink:href="#Arial-BoldMT-3d" x="428.027344"/>
     <use xlink:href="#Arial-BoldMT-20" x="486.425781"/>
     <use xlink:href="#Arial-BoldMT-35" x="514.208984"/>
     <use xlink:href="#Arial-BoldMT-38" x="569.824219"/>
    </g>
    <!-- value = [41, 17] -->
    <g transform="translate(1238.86 635.224306) scale(0.16 -0.16)">
     <use xlink:href="#Arial-BoldMT-76"/>
     <use xlink:href="#Arial-BoldMT-61" x="55.615234"/>
     <use xlink:href="#Arial-BoldMT-6c" x="111.230469"/>
     <use xlink:href="#Arial-BoldMT-75" x="139.013672"/>
     <use xlink:href="#Arial-BoldMT-65" x="200.097656"/>
     <use xlink:href="#Arial-BoldMT-20" x="255.712891"/>
     <use xlink:href="#Arial-BoldMT-3d" x="283.496094"/>
     <use xlink:href="#Arial-BoldMT-20" x="341.894531"/>
     <use xlink:href="#Arial-BoldMT-5b" x="369.677734"/>
     <use xlink:href="#Arial-BoldMT-34" x="402.978516"/>
     <use xlink:href="#Arial-BoldMT-31" x="458.59375"/>
     <use xlink:href="#Arial-BoldMT-2c" x="514.208984"/>
     <use xlink:href="#Arial-BoldMT-20" x="541.992188"/>
     <use xlink:href="#Arial-BoldMT-31" x="569.775391"/>
     <use xlink:href="#Arial-BoldMT-37" x="625.390625"/>
     <use xlink:href="#Arial-BoldMT-5d" x="681.005859"/>
    </g>
   </g>
   <g id="patch_8">
    <path d="M 1692.298311 628.043468 
Q 1603.258462 540.117168 1513.423085 451.405288 
" style="fill: none; stroke: #000000; stroke-linecap: round"/>
    <path d="M 1689.9929 621.269615 
L 1692.298311 628.043468 
L 1685.495982 625.823485 
" style="fill: none; stroke: #000000; stroke-linecap: round"/>
   </g>
   <g id="text_4">
    <g id="patch_9">
     <path d="M 1661.53125 695.724916 
L 1794.46875 695.724916 
L 1794.46875 630.732416 
L 1661.53125 630.732416 
z
" style="fill: #ffffff; stroke: #000000; stroke-linejoin: miter"/>
    </g>
    <!-- entropy = 0.979 -->
    <g transform="translate(1669.53125 650.372416) scale(0.16 -0.16)">
     <use xlink:href="#Arial-BoldMT-65"/>
     <use xlink:href="#Arial-BoldMT-6e" x="55.615234"/>
     <use xlink:href="#Arial-BoldMT-74" x="116.699219"/>
     <use xlink:href="#Arial-BoldMT-72" x="150"/>
     <use xlink:href="#Arial-BoldMT-6f" x="188.916016"/>
     <use xlink:href="#Arial-BoldMT-70" x="250"/>
     <use xlink:href="#Arial-BoldMT-79" x="311.083984"/>
     <use xlink:href="#Arial-BoldMT-20" x="366.699219"/>
     <use xlink:href="#Arial-BoldMT-3d" x="394.482422"/>
     <use xlink:href="#Arial-BoldMT-20" x="452.880859"/>
     <use xlink:href="#Arial-BoldMT-30" x="480.664062"/>
     <use xlink:href="#Arial-BoldMT-2e" x="536.279297"/>
     <use xlink:href="#Arial-BoldMT-39" x="564.0625"/>
     <use xlink:href="#Arial-BoldMT-37" x="619.677734"/>
     <use xlink:href="#Arial-BoldMT-39" x="675.292969"/>
    </g>
    <!-- samples = 89 -->
    <g transform="translate(1677.9675 667.539916) scale(0.16 -0.16)">
     <use xlink:href="#Arial-BoldMT-73"/>
     <use xlink:href="#Arial-BoldMT-61" x="55.615234"/>
     <use xlink:href="#Arial-BoldMT-6d" x="111.230469"/>
     <use xlink:href="#Arial-BoldMT-70" x="200.146484"/>
     <use xlink:href="#Arial-BoldMT-6c" x="261.230469"/>
     <use xlink:href="#Arial-BoldMT-65" x="289.013672"/>
     <use xlink:href="#Arial-BoldMT-73" x="344.628906"/>
     <use xlink:href="#Arial-BoldMT-20" x="400.244141"/>
     <use xlink:href="#Arial-BoldMT-3d" x="428.027344"/>
     <use xlink:href="#Arial-BoldMT-20" x="486.425781"/>
     <use xlink:href="#Arial-BoldMT-38" x="514.208984"/>
     <use xlink:href="#Arial-BoldMT-39" x="569.824219"/>
    </g>
    <!-- value = [37, 52] -->
    <g transform="translate(1670.86 684.497416) scale(0.16 -0.16)">
     <use xlink:href="#Arial-BoldMT-76"/>
     <use xlink:href="#Arial-BoldMT-61" x="55.615234"/>
     <use xlink:href="#Arial-BoldMT-6c" x="111.230469"/>
     <use xlink:href="#Arial-BoldMT-75" x="139.013672"/>
     <use xlink:href="#Arial-BoldMT-65" x="200.097656"/>
     <use xlink:href="#Arial-BoldMT-20" x="255.712891"/>
     <use xlink:href="#Arial-BoldMT-3d" x="283.496094"/>
     <use xlink:href="#Arial-BoldMT-20" x="341.894531"/>
     <use xlink:href="#Arial-BoldMT-5b" x="369.677734"/>
     <use xlink:href="#Arial-BoldMT-33" x="402.978516"/>
     <use xlink:href="#Arial-BoldMT-37" x="458.59375"/>
     <use xlink:href="#Arial-BoldMT-2c" x="514.208984"/>
     <use xlink:href="#Arial-BoldMT-20" x="541.992188"/>
     <use xlink:href="#Arial-BoldMT-35" x="569.775391"/>
     <use xlink:href="#Arial-BoldMT-32" x="625.390625"/>
     <use xlink:href="#Arial-BoldMT-5d" x="681.005859"/>
    </g>
   </g>
   <g id="patch_10">
    <path d="M 258.07446 414.93795 
Q 343.838352 343.46804 430.461142 271.282382 
" style="fill: none; stroke: #000000; stroke-linecap: round"/>
    <path d="M 265.039666 413.299078 
L 258.07446 414.93795 
L 260.942486 408.382462 
" style="fill: none; stroke: #000000; stroke-linecap: round"/>
   </g>
   <g id="text_5">
    <g id="patch_11">
     <path d="M 149.53125 482.42625 
L 282.46875 482.42625 
L 282.46875 417.43375 
L 149.53125 417.43375 
z
" style="fill: #ffffff; stroke: #000000; stroke-linejoin: miter"/>
    </g>
    <!-- entropy = 0.096 -->
    <g transform="translate(157.53125 437.07375) scale(0.16 -0.16)">
     <use xlink:href="#Arial-BoldMT-65"/>
     <use xlink:href="#Arial-BoldMT-6e" x="55.615234"/>
     <use xlink:href="#Arial-BoldMT-74" x="116.699219"/>
     <use xlink:href="#Arial-BoldMT-72" x="150"/>
     <use xlink:href="#Arial-BoldMT-6f" x="188.916016"/>
     <use xlink:href="#Arial-BoldMT-70" x="250"/>
     <use xlink:href="#Arial-BoldMT-79" x="311.083984"/>
     <use xlink:href="#Arial-BoldMT-20" x="366.699219"/>
     <use xlink:href="#Arial-BoldMT-3d" x="394.482422"/>
     <use xlink:href="#Arial-BoldMT-20" x="452.880859"/>
     <use xlink:href="#Arial-BoldMT-30" x="480.664062"/>
     <use xlink:href="#Arial-BoldMT-2e" x="536.279297"/>
     <use xlink:href="#Arial-BoldMT-30" x="564.0625"/>
     <use xlink:href="#Arial-BoldMT-39" x="619.677734"/>
     <use xlink:href="#Arial-BoldMT-36" x="675.292969"/>
    </g>
    <!-- samples = 81 -->
    <g transform="translate(165.9675 454.24125) scale(0.16 -0.16)">
     <use xlink:href="#Arial-BoldMT-73"/>
     <use xlink:href="#Arial-BoldMT-61" x="55.615234"/>
     <use xlink:href="#Arial-BoldMT-6d" x="111.230469"/>
     <use xlink:href="#Arial-BoldMT-70" x="200.146484"/>
     <use xlink:href="#Arial-BoldMT-6c" x="261.230469"/>
     <use xlink:href="#Arial-BoldMT-65" x="289.013672"/>
     <use xlink:href="#Arial-BoldMT-73" x="344.628906"/>
     <use xlink:href="#Arial-BoldMT-20" x="400.244141"/>
     <use xlink:href="#Arial-BoldMT-3d" x="428.027344"/>
     <use xlink:href="#Arial-BoldMT-20" x="486.425781"/>
     <use xlink:href="#Arial-BoldMT-38" x="514.208984"/>
     <use xlink:href="#Arial-BoldMT-31" x="569.824219"/>
    </g>
    <!-- value = [80, 1] -->
    <g transform="translate(163.30875 471.19875) scale(0.16 -0.16)">
     <use xlink:href="#Arial-BoldMT-76"/>
     <use xlink:href="#Arial-BoldMT-61" x="55.615234"/>
     <use xlink:href="#Arial-BoldMT-6c" x="111.230469"/>
     <use xlink:href="#Arial-BoldMT-75" x="139.013672"/>
     <use xlink:href="#Arial-BoldMT-65" x="200.097656"/>
     <use xlink:href="#Arial-BoldMT-20" x="255.712891"/>
     <use xlink:href="#Arial-BoldMT-3d" x="283.496094"/>
     <use xlink:href="#Arial-BoldMT-20" x="341.894531"/>
     <use xlink:href="#Arial-BoldMT-5b" x="369.677734"/>
     <use xlink:href="#Arial-BoldMT-38" x="402.978516"/>
     <use xlink:href="#Arial-BoldMT-30" x="458.59375"/>
     <use xlink:href="#Arial-BoldMT-2c" x="514.208984"/>
     <use xlink:href="#Arial-BoldMT-20" x="541.992188"/>
     <use xlink:href="#Arial-BoldMT-31" x="569.775391"/>
     <use xlink:href="#Arial-BoldMT-5d" x="625.390625"/>
    </g>
   </g>
   <g id="patch_12">
    <path d="M 590.783206 390.825876 
Q 512.631958 331.356784 433.590979 271.210654 
" style="fill: none; stroke: #000000; stroke-linecap: round"/>
    <path d="M 587.627895 384.403727 
L 590.783206 390.825876 
L 583.7523 389.496836 
" style="fill: none; stroke: #000000; stroke-linecap: round"/>
   </g>
   <g id="text_6">
    <g id="patch_13">
     <path d="M 578.41125 475.374922 
L 717.58875 475.374922 
L 717.58875 393.214922 
L 578.41125 393.214922 
z
" style="fill: #ffffff; stroke: #000000; stroke-linejoin: miter"/>
    </g>
    <!-- Age &lt;= 28.5 -->
    <g transform="translate(603.52875 412.854922) scale(0.16 -0.16)">
     <defs>
      <path id="Arial-BoldMT-41" d="M 4597 0 
L 3591 0 
L 3191 1041 
L 1359 1041 
L 981 0 
L 0 0 
L 1784 4581 
L 2763 4581 
L 4597 0 
z
M 2894 1813 
L 2263 3513 
L 1644 1813 
L 2894 1813 
z
" transform="scale(0.015625)"/>
      <path id="Arial-BoldMT-67" d="M 378 -219 
L 1381 -341 
Q 1406 -516 1497 -581 
Q 1622 -675 1891 -675 
Q 2234 -675 2406 -572 
Q 2522 -503 2581 -350 
Q 2622 -241 2622 53 
L 2622 538 
Q 2228 0 1628 0 
Q 959 0 569 566 
Q 263 1013 263 1678 
Q 263 2513 664 2953 
Q 1066 3394 1663 3394 
Q 2278 3394 2678 2853 
L 2678 3319 
L 3500 3319 
L 3500 341 
Q 3500 -247 3403 -537 
Q 3306 -828 3131 -993 
Q 2956 -1159 2664 -1253 
Q 2372 -1347 1925 -1347 
Q 1081 -1347 728 -1058 
Q 375 -769 375 -325 
Q 375 -281 378 -219 
z
M 1163 1728 
Q 1163 1200 1367 954 
Q 1572 709 1872 709 
Q 2194 709 2416 961 
Q 2638 1213 2638 1706 
Q 2638 2222 2425 2472 
Q 2213 2722 1888 2722 
Q 1572 2722 1367 2476 
Q 1163 2231 1163 1728 
z
" transform="scale(0.015625)"/>
      <path id="Arial-BoldMT-3c" d="M 3438 522 
L 297 1888 
L 297 2644 
L 3438 4003 
L 3438 3113 
L 1247 2275 
L 3438 1406 
L 3438 522 
z
" transform="scale(0.015625)"/>
     </defs>
     <use xlink:href="#Arial-BoldMT-41"/>
     <use xlink:href="#Arial-BoldMT-67" x="72.216797"/>
     <use xlink:href="#Arial-BoldMT-65" x="133.300781"/>
     <use xlink:href="#Arial-BoldMT-20" x="188.916016"/>
     <use xlink:href="#Arial-BoldMT-3c" x="216.699219"/>
     <use xlink:href="#Arial-BoldMT-3d" x="275.097656"/>
     <use xlink:href="#Arial-BoldMT-20" x="333.496094"/>
     <use xlink:href="#Arial-BoldMT-32" x="361.279297"/>
     <use xlink:href="#Arial-BoldMT-38" x="416.894531"/>
     <use xlink:href="#Arial-BoldMT-2e" x="472.509766"/>
     <use xlink:href="#Arial-BoldMT-35" x="500.292969"/>
    </g>
    <!-- entropy = 0.839 -->
    <g transform="translate(589.53125 430.022422) scale(0.16 -0.16)">
     <use xlink:href="#Arial-BoldMT-65"/>
     <use xlink:href="#Arial-BoldMT-6e" x="55.615234"/>
     <use xlink:href="#Arial-BoldMT-74" x="116.699219"/>
     <use xlink:href="#Arial-BoldMT-72" x="150"/>
     <use xlink:href="#Arial-BoldMT-6f" x="188.916016"/>
     <use xlink:href="#Arial-BoldMT-70" x="250"/>
     <use xlink:href="#Arial-BoldMT-79" x="311.083984"/>
     <use xlink:href="#Arial-BoldMT-20" x="366.699219"/>
     <use xlink:href="#Arial-BoldMT-3d" x="394.482422"/>
     <use xlink:href="#Arial-BoldMT-20" x="452.880859"/>
     <use xlink:href="#Arial-BoldMT-30" x="480.664062"/>
     <use xlink:href="#Arial-BoldMT-2e" x="536.279297"/>
     <use xlink:href="#Arial-BoldMT-38" x="564.0625"/>
     <use xlink:href="#Arial-BoldMT-33" x="619.677734"/>
     <use xlink:href="#Arial-BoldMT-39" x="675.292969"/>
    </g>
    <!-- samples = 220 -->
    <g transform="translate(593.51875 447.189922) scale(0.16 -0.16)">
     <use xlink:href="#Arial-BoldMT-73"/>
     <use xlink:href="#Arial-BoldMT-61" x="55.615234"/>
     <use xlink:href="#Arial-BoldMT-6d" x="111.230469"/>
     <use xlink:href="#Arial-BoldMT-70" x="200.146484"/>
     <use xlink:href="#Arial-BoldMT-6c" x="261.230469"/>
     <use xlink:href="#Arial-BoldMT-65" x="289.013672"/>
     <use xlink:href="#Arial-BoldMT-73" x="344.628906"/>
     <use xlink:href="#Arial-BoldMT-20" x="400.244141"/>
     <use xlink:href="#Arial-BoldMT-3d" x="428.027344"/>
     <use xlink:href="#Arial-BoldMT-20" x="486.425781"/>
     <use xlink:href="#Arial-BoldMT-32" x="514.208984"/>
     <use xlink:href="#Arial-BoldMT-32" x="569.824219"/>
     <use xlink:href="#Arial-BoldMT-30" x="625.439453"/>
    </g>
    <!-- value = [161, 59] -->
    <g transform="translate(586.41125 464.147422) scale(0.16 -0.16)">
     <use xlink:href="#Arial-BoldMT-76"/>
     <use xlink:href="#Arial-BoldMT-61" x="55.615234"/>
     <use xlink:href="#Arial-BoldMT-6c" x="111.230469"/>
     <use xlink:href="#Arial-BoldMT-75" x="139.013672"/>
     <use xlink:href="#Arial-BoldMT-65" x="200.097656"/>
     <use xlink:href="#Arial-BoldMT-20" x="255.712891"/>
     <use xlink:href="#Arial-BoldMT-3d" x="283.496094"/>
     <use xlink:href="#Arial-BoldMT-20" x="341.894531"/>
     <use xlink:href="#Arial-BoldMT-5b" x="369.677734"/>
     <use xlink:href="#Arial-BoldMT-31" x="402.978516"/>
     <use xlink:href="#Arial-BoldMT-36" x="458.59375"/>
     <use xlink:href="#Arial-BoldMT-31" x="514.208984"/>
     <use xlink:href="#Arial-BoldMT-2c" x="569.824219"/>
     <use xlink:href="#Arial-BoldMT-20" x="597.607422"/>
     <use xlink:href="#Arial-BoldMT-35" x="625.390625"/>
     <use xlink:href="#Arial-BoldMT-39" x="681.005859"/>
     <use xlink:href="#Arial-BoldMT-5d" x="736.621094"/>
    </g>
   </g>
   <g id="patch_14">
    <path d="M 1559.532588 423.874588 
Q 1642.616032 347.987919 1726.52499 271.347243 
" style="fill: none; stroke: #000000; stroke-linecap: round"/>
    <path d="M 1566.4162 421.921158 
L 1559.532588 423.874588 
L 1562.100012 417.19564 
" style="fill: none; stroke: #000000; stroke-linecap: round"/>
   </g>
   <g id="text_7">
    <g id="patch_15">
     <path d="M 1445.53125 508.171103 
L 1578.46875 508.171103 
L 1578.46875 426.478603 
L 1445.53125 426.478603 
z
" style="fill: #ffffff; stroke: #000000; stroke-linejoin: miter"/>
    </g>
    <!-- BMI &lt;= 31.0 -->
    <g transform="translate(1467.9775 445.861103) scale(0.16 -0.16)">
     <defs>
      <path id="Arial-BoldMT-42" d="M 469 4581 
L 2300 4581 
Q 2844 4581 3111 4536 
Q 3378 4491 3589 4347 
Q 3800 4203 3940 3964 
Q 4081 3725 4081 3428 
Q 4081 3106 3907 2837 
Q 3734 2569 3438 2434 
Q 3856 2313 4081 2019 
Q 4306 1725 4306 1328 
Q 4306 1016 4161 720 
Q 4016 425 3764 248 
Q 3513 72 3144 31 
Q 2913 6 2028 0 
L 469 0 
L 469 4581 
z
M 1394 3819 
L 1394 2759 
L 2000 2759 
Q 2541 2759 2672 2775 
Q 2909 2803 3045 2939 
Q 3181 3075 3181 3297 
Q 3181 3509 3064 3642 
Q 2947 3775 2716 3803 
Q 2578 3819 1925 3819 
L 1394 3819 
z
M 1394 1997 
L 1394 772 
L 2250 772 
Q 2750 772 2884 800 
Q 3091 838 3220 983 
Q 3350 1128 3350 1372 
Q 3350 1578 3250 1722 
Q 3150 1866 2961 1931 
Q 2772 1997 2141 1997 
L 1394 1997 
z
" transform="scale(0.015625)"/>
      <path id="Arial-BoldMT-4d" d="M 453 0 
L 453 4581 
L 1838 4581 
L 2669 1456 
L 3491 4581 
L 4878 4581 
L 4878 0 
L 4019 0 
L 4019 3606 
L 3109 0 
L 2219 0 
L 1313 3606 
L 1313 0 
L 453 0 
z
" transform="scale(0.015625)"/>
      <path id="Arial-BoldMT-49" d="M 438 0 
L 438 4581 
L 1363 4581 
L 1363 0 
L 438 0 
z
" transform="scale(0.015625)"/>
     </defs>
     <use xlink:href="#Arial-BoldMT-42"/>
     <use xlink:href="#Arial-BoldMT-4d" x="72.216797"/>
     <use xlink:href="#Arial-BoldMT-49" x="155.517578"/>
     <use xlink:href="#Arial-BoldMT-20" x="183.300781"/>
     <use xlink:href="#Arial-BoldMT-3c" x="211.083984"/>
     <use xlink:href="#Arial-BoldMT-3d" x="269.482422"/>
     <use xlink:href="#Arial-BoldMT-20" x="327.880859"/>
     <use xlink:href="#Arial-BoldMT-33" x="355.664062"/>
     <use xlink:href="#Arial-BoldMT-31" x="411.279297"/>
     <use xlink:href="#Arial-BoldMT-2e" x="466.894531"/>
     <use xlink:href="#Arial-BoldMT-30" x="494.677734"/>
    </g>
    <!-- entropy = 0.997 -->
    <g transform="translate(1453.53125 462.818603) scale(0.16 -0.16)">
     <use xlink:href="#Arial-BoldMT-65"/>
     <use xlink:href="#Arial-BoldMT-6e" x="55.615234"/>
     <use xlink:href="#Arial-BoldMT-74" x="116.699219"/>
     <use xlink:href="#Arial-BoldMT-72" x="150"/>
     <use xlink:href="#Arial-BoldMT-6f" x="188.916016"/>
     <use xlink:href="#Arial-BoldMT-70" x="250"/>
     <use xlink:href="#Arial-BoldMT-79" x="311.083984"/>
     <use xlink:href="#Arial-BoldMT-20" x="366.699219"/>
     <use xlink:href="#Arial-BoldMT-3d" x="394.482422"/>
     <use xlink:href="#Arial-BoldMT-20" x="452.880859"/>
     <use xlink:href="#Arial-BoldMT-30" x="480.664062"/>
     <use xlink:href="#Arial-BoldMT-2e" x="536.279297"/>
     <use xlink:href="#Arial-BoldMT-39" x="564.0625"/>
     <use xlink:href="#Arial-BoldMT-39" x="619.677734"/>
     <use xlink:href="#Arial-BoldMT-37" x="675.292969"/>
    </g>
    <!-- samples = 147 -->
    <g transform="translate(1457.51875 479.986103) scale(0.16 -0.16)">
     <use xlink:href="#Arial-BoldMT-73"/>
     <use xlink:href="#Arial-BoldMT-61" x="55.615234"/>
     <use xlink:href="#Arial-BoldMT-6d" x="111.230469"/>
     <use xlink:href="#Arial-BoldMT-70" x="200.146484"/>
     <use xlink:href="#Arial-BoldMT-6c" x="261.230469"/>
     <use xlink:href="#Arial-BoldMT-65" x="289.013672"/>
     <use xlink:href="#Arial-BoldMT-73" x="344.628906"/>
     <use xlink:href="#Arial-BoldMT-20" x="400.244141"/>
     <use xlink:href="#Arial-BoldMT-3d" x="428.027344"/>
     <use xlink:href="#Arial-BoldMT-20" x="486.425781"/>
     <use xlink:href="#Arial-BoldMT-31" x="514.208984"/>
     <use xlink:href="#Arial-BoldMT-34" x="569.824219"/>
     <use xlink:href="#Arial-BoldMT-37" x="625.439453"/>
    </g>
    <!-- value = [78, 69] -->
    <g transform="translate(1454.86 496.943603) scale(0.16 -0.16)">
     <use xlink:href="#Arial-BoldMT-76"/>
     <use xlink:href="#Arial-BoldMT-61" x="55.615234"/>
     <use xlink:href="#Arial-BoldMT-6c" x="111.230469"/>
     <use xlink:href="#Arial-BoldMT-75" x="139.013672"/>
     <use xlink:href="#Arial-BoldMT-65" x="200.097656"/>
     <use xlink:href="#Arial-BoldMT-20" x="255.712891"/>
     <use xlink:href="#Arial-BoldMT-3d" x="283.496094"/>
     <use xlink:href="#Arial-BoldMT-20" x="341.894531"/>
     <use xlink:href="#Arial-BoldMT-5b" x="369.677734"/>
     <use xlink:href="#Arial-BoldMT-37" x="402.978516"/>
     <use xlink:href="#Arial-BoldMT-38" x="458.59375"/>
     <use xlink:href="#Arial-BoldMT-2c" x="514.208984"/>
     <use xlink:href="#Arial-BoldMT-20" x="541.992188"/>
     <use xlink:href="#Arial-BoldMT-36" x="569.775391"/>
     <use xlink:href="#Arial-BoldMT-39" x="625.390625"/>
     <use xlink:href="#Arial-BoldMT-5d" x="681.005859"/>
    </g>
   </g>
   <g id="patch_16">
    <path d="M 1896.386372 393.460662 
Q 1813.451237 332.652733 1729.614456 271.183717 
" style="fill: none; stroke: #000000; stroke-linecap: round"/>
    <path d="M 1893.117186 387.095725 
L 1896.386372 393.460662 
L 1889.33291 392.257049 
" style="fill: none; stroke: #000000; stroke-linecap: round"/>
   </g>
   <g id="text_8">
    <g id="patch_17">
     <path d="M 1877.53125 460.797161 
L 2010.46875 460.797161 
L 2010.46875 395.804661 
L 1877.53125 395.804661 
z
" style="fill: #ffffff; stroke: #000000; stroke-linejoin: miter"/>
    </g>
    <!-- entropy = 0.699 -->
    <g transform="translate(1885.53125 415.444661) scale(0.16 -0.16)">
     <use xlink:href="#Arial-BoldMT-65"/>
     <use xlink:href="#Arial-BoldMT-6e" x="55.615234"/>
     <use xlink:href="#Arial-BoldMT-74" x="116.699219"/>
     <use xlink:href="#Arial-BoldMT-72" x="150"/>
     <use xlink:href="#Arial-BoldMT-6f" x="188.916016"/>
     <use xlink:href="#Arial-BoldMT-70" x="250"/>
     <use xlink:href="#Arial-BoldMT-79" x="311.083984"/>
     <use xlink:href="#Arial-BoldMT-20" x="366.699219"/>
     <use xlink:href="#Arial-BoldMT-3d" x="394.482422"/>
     <use xlink:href="#Arial-BoldMT-20" x="452.880859"/>
     <use xlink:href="#Arial-BoldMT-30" x="480.664062"/>
     <use xlink:href="#Arial-BoldMT-2e" x="536.279297"/>
     <use xlink:href="#Arial-BoldMT-36" x="564.0625"/>
     <use xlink:href="#Arial-BoldMT-39" x="619.677734"/>
     <use xlink:href="#Arial-BoldMT-39" x="675.292969"/>
    </g>
    <!-- samples = 90 -->
    <g transform="translate(1893.9675 432.612161) scale(0.16 -0.16)">
     <use xlink:href="#Arial-BoldMT-73"/>
     <use xlink:href="#Arial-BoldMT-61" x="55.615234"/>
     <use xlink:href="#Arial-BoldMT-6d" x="111.230469"/>
     <use xlink:href="#Arial-BoldMT-70" x="200.146484"/>
     <use xlink:href="#Arial-BoldMT-6c" x="261.230469"/>
     <use xlink:href="#Arial-BoldMT-65" x="289.013672"/>
     <use xlink:href="#Arial-BoldMT-73" x="344.628906"/>
     <use xlink:href="#Arial-BoldMT-20" x="400.244141"/>
     <use xlink:href="#Arial-BoldMT-3d" x="428.027344"/>
     <use xlink:href="#Arial-BoldMT-20" x="486.425781"/>
     <use xlink:href="#Arial-BoldMT-39" x="514.208984"/>
     <use xlink:href="#Arial-BoldMT-30" x="569.824219"/>
    </g>
    <!-- value = [17, 73] -->
    <g transform="translate(1886.86 449.569661) scale(0.16 -0.16)">
     <use xlink:href="#Arial-BoldMT-76"/>
     <use xlink:href="#Arial-BoldMT-61" x="55.615234"/>
     <use xlink:href="#Arial-BoldMT-6c" x="111.230469"/>
     <use xlink:href="#Arial-BoldMT-75" x="139.013672"/>
     <use xlink:href="#Arial-BoldMT-65" x="200.097656"/>
     <use xlink:href="#Arial-BoldMT-20" x="255.712891"/>
     <use xlink:href="#Arial-BoldMT-3d" x="283.496094"/>
     <use xlink:href="#Arial-BoldMT-20" x="341.894531"/>
     <use xlink:href="#Arial-BoldMT-5b" x="369.677734"/>
     <use xlink:href="#Arial-BoldMT-31" x="402.978516"/>
     <use xlink:href="#Arial-BoldMT-37" x="458.59375"/>
     <use xlink:href="#Arial-BoldMT-2c" x="514.208984"/>
     <use xlink:href="#Arial-BoldMT-20" x="541.992188"/>
     <use xlink:href="#Arial-BoldMT-37" x="569.775391"/>
     <use xlink:href="#Arial-BoldMT-33" x="625.390625"/>
     <use xlink:href="#Arial-BoldMT-5d" x="681.005859"/>
    </g>
   </g>
   <g id="patch_18">
    <path d="M 505.090492 249.697086 
Q 791.042046 170.266098 1078.070845 90.535876 
" style="fill: none; stroke: #000000; stroke-linecap: round"/>
    <path d="M 512.113467 251.067422 
L 505.090492 249.697086 
L 510.400546 244.900907 
" style="fill: none; stroke: #000000; stroke-linecap: round"/>
   </g>
   <g id="text_9">
    <g id="patch_19">
     <path d="M 362.41125 310.88125 
L 501.58875 310.88125 
L 501.58875 229.18875 
L 362.41125 229.18875 
z
" style="fill: #ffffff; stroke: #000000; stroke-linejoin: miter"/>
    </g>
    <!-- BMI &lt;= 26.45 -->
    <g transform="translate(383.52875 248.57125) scale(0.16 -0.16)">
     <use xlink:href="#Arial-BoldMT-42"/>
     <use xlink:href="#Arial-BoldMT-4d" x="72.216797"/>
     <use xlink:href="#Arial-BoldMT-49" x="155.517578"/>
     <use xlink:href="#Arial-BoldMT-20" x="183.300781"/>
     <use xlink:href="#Arial-BoldMT-3c" x="211.083984"/>
     <use xlink:href="#Arial-BoldMT-3d" x="269.482422"/>
     <use xlink:href="#Arial-BoldMT-20" x="327.880859"/>
     <use xlink:href="#Arial-BoldMT-32" x="355.664062"/>
     <use xlink:href="#Arial-BoldMT-36" x="411.279297"/>
     <use xlink:href="#Arial-BoldMT-2e" x="466.894531"/>
     <use xlink:href="#Arial-BoldMT-34" x="494.677734"/>
     <use xlink:href="#Arial-BoldMT-35" x="550.292969"/>
    </g>
    <!-- entropy = 0.721 -->
    <g transform="translate(373.53125 265.52875) scale(0.16 -0.16)">
     <use xlink:href="#Arial-BoldMT-65"/>
     <use xlink:href="#Arial-BoldMT-6e" x="55.615234"/>
     <use xlink:href="#Arial-BoldMT-74" x="116.699219"/>
     <use xlink:href="#Arial-BoldMT-72" x="150"/>
     <use xlink:href="#Arial-BoldMT-6f" x="188.916016"/>
     <use xlink:href="#Arial-BoldMT-70" x="250"/>
     <use xlink:href="#Arial-BoldMT-79" x="311.083984"/>
     <use xlink:href="#Arial-BoldMT-20" x="366.699219"/>
     <use xlink:href="#Arial-BoldMT-3d" x="394.482422"/>
     <use xlink:href="#Arial-BoldMT-20" x="452.880859"/>
     <use xlink:href="#Arial-BoldMT-30" x="480.664062"/>
     <use xlink:href="#Arial-BoldMT-2e" x="536.279297"/>
     <use xlink:href="#Arial-BoldMT-37" x="564.0625"/>
     <use xlink:href="#Arial-BoldMT-32" x="619.677734"/>
     <use xlink:href="#Arial-BoldMT-31" x="675.292969"/>
    </g>
    <!-- samples = 301 -->
    <g transform="translate(377.51875 282.69625) scale(0.16 -0.16)">
     <use xlink:href="#Arial-BoldMT-73"/>
     <use xlink:href="#Arial-BoldMT-61" x="55.615234"/>
     <use xlink:href="#Arial-BoldMT-6d" x="111.230469"/>
     <use xlink:href="#Arial-BoldMT-70" x="200.146484"/>
     <use xlink:href="#Arial-BoldMT-6c" x="261.230469"/>
     <use xlink:href="#Arial-BoldMT-65" x="289.013672"/>
     <use xlink:href="#Arial-BoldMT-73" x="344.628906"/>
     <use xlink:href="#Arial-BoldMT-20" x="400.244141"/>
     <use xlink:href="#Arial-BoldMT-3d" x="428.027344"/>
     <use xlink:href="#Arial-BoldMT-20" x="486.425781"/>
     <use xlink:href="#Arial-BoldMT-33" x="514.208984"/>
     <use xlink:href="#Arial-BoldMT-30" x="569.824219"/>
     <use xlink:href="#Arial-BoldMT-31" x="625.439453"/>
    </g>
    <!-- value = [241, 60] -->
    <g transform="translate(370.41125 299.65375) scale(0.16 -0.16)">
     <use xlink:href="#Arial-BoldMT-76"/>
     <use xlink:href="#Arial-BoldMT-61" x="55.615234"/>
     <use xlink:href="#Arial-BoldMT-6c" x="111.230469"/>
     <use xlink:href="#Arial-BoldMT-75" x="139.013672"/>
     <use xlink:href="#Arial-BoldMT-65" x="200.097656"/>
     <use xlink:href="#Arial-BoldMT-20" x="255.712891"/>
     <use xlink:href="#Arial-BoldMT-3d" x="283.496094"/>
     <use xlink:href="#Arial-BoldMT-20" x="341.894531"/>
     <use xlink:href="#Arial-BoldMT-5b" x="369.677734"/>
     <use xlink:href="#Arial-BoldMT-32" x="402.978516"/>
     <use xlink:href="#Arial-BoldMT-34" x="458.59375"/>
     <use xlink:href="#Arial-BoldMT-31" x="514.208984"/>
     <use xlink:href="#Arial-BoldMT-2c" x="569.824219"/>
     <use xlink:href="#Arial-BoldMT-20" x="597.607422"/>
     <use xlink:href="#Arial-BoldMT-36" x="625.390625"/>
     <use xlink:href="#Arial-BoldMT-30" x="681.005859"/>
     <use xlink:href="#Arial-BoldMT-5d" x="736.621094"/>
    </g>
   </g>
   <g id="patch_20">
    <path d="M 1651.103098 236.407385 
Q 1367.059999 163.590397 1081.933887 90.495769 
" style="fill: none; stroke: #000000; stroke-linecap: round"/>
    <path d="M 1645.698225 231.718319 
L 1651.103098 236.407385 
L 1644.108921 237.917844 
" style="fill: none; stroke: #000000; stroke-linecap: round"/>
   </g>
   <g id="text_10">
    <g id="patch_21">
     <path d="M 1654.62875 297.001844 
L 1801.37125 297.001844 
L 1801.37125 215.309344 
L 1654.62875 215.309344 
z
" style="fill: #ffffff; stroke: #000000; stroke-linejoin: miter"/>
    </g>
    <!-- Glucose &lt;= 154.5 -->
    <g transform="translate(1662.62875 234.691844) scale(0.16 -0.16)">
     <defs>
      <path id="Arial-BoldMT-47" d="M 2597 1684 
L 2597 2456 
L 4591 2456 
L 4591 631 
Q 4300 350 3748 136 
Q 3197 -78 2631 -78 
Q 1913 -78 1378 223 
Q 844 525 575 1086 
Q 306 1647 306 2306 
Q 306 3022 606 3578 
Q 906 4134 1484 4431 
Q 1925 4659 2581 4659 
Q 3434 4659 3914 4301 
Q 4394 3944 4531 3313 
L 3613 3141 
Q 3516 3478 3248 3673 
Q 2981 3869 2581 3869 
Q 1975 3869 1617 3484 
Q 1259 3100 1259 2344 
Q 1259 1528 1621 1120 
Q 1984 713 2572 713 
Q 2863 713 3155 827 
Q 3447 941 3656 1103 
L 3656 1684 
L 2597 1684 
z
" transform="scale(0.015625)"/>
      <path id="Arial-BoldMT-63" d="M 3353 2338 
L 2488 2181 
Q 2444 2441 2289 2572 
Q 2134 2703 1888 2703 
Q 1559 2703 1364 2476 
Q 1169 2250 1169 1719 
Q 1169 1128 1367 884 
Q 1566 641 1900 641 
Q 2150 641 2309 783 
Q 2469 925 2534 1272 
L 3397 1125 
Q 3263 531 2881 228 
Q 2500 -75 1859 -75 
Q 1131 -75 698 384 
Q 266 844 266 1656 
Q 266 2478 700 2936 
Q 1134 3394 1875 3394 
Q 2481 3394 2839 3133 
Q 3197 2872 3353 2338 
z
" transform="scale(0.015625)"/>
     </defs>
     <use xlink:href="#Arial-BoldMT-47"/>
     <use xlink:href="#Arial-BoldMT-6c" x="77.783203"/>
     <use xlink:href="#Arial-BoldMT-75" x="105.566406"/>
     <use xlink:href="#Arial-BoldMT-63" x="166.650391"/>
     <use xlink:href="#Arial-BoldMT-6f" x="222.265625"/>
     <use xlink:href="#Arial-BoldMT-73" x="283.349609"/>
     <use xlink:href="#Arial-BoldMT-65" x="338.964844"/>
     <use xlink:href="#Arial-BoldMT-20" x="394.580078"/>
     <use xlink:href="#Arial-BoldMT-3c" x="422.363281"/>
     <use xlink:href="#Arial-BoldMT-3d" x="480.761719"/>
     <use xlink:href="#Arial-BoldMT-20" x="539.160156"/>
     <use xlink:href="#Arial-BoldMT-31" x="566.943359"/>
     <use xlink:href="#Arial-BoldMT-35" x="622.558594"/>
     <use xlink:href="#Arial-BoldMT-34" x="678.173828"/>
     <use xlink:href="#Arial-BoldMT-2e" x="733.789062"/>
     <use xlink:href="#Arial-BoldMT-35" x="761.572266"/>
    </g>
    <!-- entropy = 0.971 -->
    <g transform="translate(1669.53125 251.649344) scale(0.16 -0.16)">
     <use xlink:href="#Arial-BoldMT-65"/>
     <use xlink:href="#Arial-BoldMT-6e" x="55.615234"/>
     <use xlink:href="#Arial-BoldMT-74" x="116.699219"/>
     <use xlink:href="#Arial-BoldMT-72" x="150"/>
     <use xlink:href="#Arial-BoldMT-6f" x="188.916016"/>
     <use xlink:href="#Arial-BoldMT-70" x="250"/>
     <use xlink:href="#Arial-BoldMT-79" x="311.083984"/>
     <use xlink:href="#Arial-BoldMT-20" x="366.699219"/>
     <use xlink:href="#Arial-BoldMT-3d" x="394.482422"/>
     <use xlink:href="#Arial-BoldMT-20" x="452.880859"/>
     <use xlink:href="#Arial-BoldMT-30" x="480.664062"/>
     <use xlink:href="#Arial-BoldMT-2e" x="536.279297"/>
     <use xlink:href="#Arial-BoldMT-39" x="564.0625"/>
     <use xlink:href="#Arial-BoldMT-37" x="619.677734"/>
     <use xlink:href="#Arial-BoldMT-31" x="675.292969"/>
    </g>
    <!-- samples = 237 -->
    <g transform="translate(1673.51875 268.816844) scale(0.16 -0.16)">
     <use xlink:href="#Arial-BoldMT-73"/>
     <use xlink:href="#Arial-BoldMT-61" x="55.615234"/>
     <use xlink:href="#Arial-BoldMT-6d" x="111.230469"/>
     <use xlink:href="#Arial-BoldMT-70" x="200.146484"/>
     <use xlink:href="#Arial-BoldMT-6c" x="261.230469"/>
     <use xlink:href="#Arial-BoldMT-65" x="289.013672"/>
     <use xlink:href="#Arial-BoldMT-73" x="344.628906"/>
     <use xlink:href="#Arial-BoldMT-20" x="400.244141"/>
     <use xlink:href="#Arial-BoldMT-3d" x="428.027344"/>
     <use xlink:href="#Arial-BoldMT-20" x="486.425781"/>
     <use xlink:href="#Arial-BoldMT-32" x="514.208984"/>
     <use xlink:href="#Arial-BoldMT-33" x="569.824219"/>
     <use xlink:href="#Arial-BoldMT-37" x="625.439453"/>
    </g>
    <!-- value = [95, 142] -->
    <g transform="translate(1666.41125 285.774344) scale(0.16 -0.16)">
     <use xlink:href="#Arial-BoldMT-76"/>
     <use xlink:href="#Arial-BoldMT-61" x="55.615234"/>
     <use xlink:href="#Arial-BoldMT-6c" x="111.230469"/>
     <use xlink:href="#Arial-BoldMT-75" x="139.013672"/>
     <use xlink:href="#Arial-BoldMT-65" x="200.097656"/>
     <use xlink:href="#Arial-BoldMT-20" x="255.712891"/>
     <use xlink:href="#Arial-BoldMT-3d" x="283.496094"/>
     <use xlink:href="#Arial-BoldMT-20" x="341.894531"/>
     <use xlink:href="#Arial-BoldMT-5b" x="369.677734"/>
     <use xlink:href="#Arial-BoldMT-39" x="402.978516"/>
     <use xlink:href="#Arial-BoldMT-35" x="458.59375"/>
     <use xlink:href="#Arial-BoldMT-2c" x="514.208984"/>
     <use xlink:href="#Arial-BoldMT-20" x="541.992188"/>
     <use xlink:href="#Arial-BoldMT-31" x="569.775391"/>
     <use xlink:href="#Arial-BoldMT-34" x="625.390625"/>
     <use xlink:href="#Arial-BoldMT-32" x="681.005859"/>
     <use xlink:href="#Arial-BoldMT-5d" x="736.621094"/>
    </g>
   </g>
   <g id="patch_22">
    <path d="M 1080 90 
Q 1080 90 1080 90 
" style="fill: none; stroke: #000000; stroke-linecap: round"/>
   </g>
   <g id="text_11">
    <g id="patch_23">
     <path d="M 1005.9625 130.88125 
L 1154.0375 130.88125 
L 1154.0375 49.18875 
L 1005.9625 49.18875 
z
" style="fill: #ffffff; stroke: #000000; stroke-linejoin: miter"/>
    </g>
    <!-- Glucose &lt;= 123.5 -->
    <g transform="translate(1014.62875 68.57125) scale(0.16 -0.16)">
     <use xlink:href="#Arial-BoldMT-47"/>
     <use xlink:href="#Arial-BoldMT-6c" x="77.783203"/>
     <use xlink:href="#Arial-BoldMT-75" x="105.566406"/>
     <use xlink:href="#Arial-BoldMT-63" x="166.650391"/>
     <use xlink:href="#Arial-BoldMT-6f" x="222.265625"/>
     <use xlink:href="#Arial-BoldMT-73" x="283.349609"/>
     <use xlink:href="#Arial-BoldMT-65" x="338.964844"/>
     <use xlink:href="#Arial-BoldMT-20" x="394.580078"/>
     <use xlink:href="#Arial-BoldMT-3c" x="422.363281"/>
     <use xlink:href="#Arial-BoldMT-3d" x="480.761719"/>
     <use xlink:href="#Arial-BoldMT-20" x="539.160156"/>
     <use xlink:href="#Arial-BoldMT-31" x="566.943359"/>
     <use xlink:href="#Arial-BoldMT-32" x="622.558594"/>
     <use xlink:href="#Arial-BoldMT-33" x="678.173828"/>
     <use xlink:href="#Arial-BoldMT-2e" x="733.789062"/>
     <use xlink:href="#Arial-BoldMT-35" x="761.572266"/>
    </g>
    <!-- entropy = 0.955 -->
    <g transform="translate(1021.53125 85.52875) scale(0.16 -0.16)">
     <use xlink:href="#Arial-BoldMT-65"/>
     <use xlink:href="#Arial-BoldMT-6e" x="55.615234"/>
     <use xlink:href="#Arial-BoldMT-74" x="116.699219"/>
     <use xlink:href="#Arial-BoldMT-72" x="150"/>
     <use xlink:href="#Arial-BoldMT-6f" x="188.916016"/>
     <use xlink:href="#Arial-BoldMT-70" x="250"/>
     <use xlink:href="#Arial-BoldMT-79" x="311.083984"/>
     <use xlink:href="#Arial-BoldMT-20" x="366.699219"/>
     <use xlink:href="#Arial-BoldMT-3d" x="394.482422"/>
     <use xlink:href="#Arial-BoldMT-20" x="452.880859"/>
     <use xlink:href="#Arial-BoldMT-30" x="480.664062"/>
     <use xlink:href="#Arial-BoldMT-2e" x="536.279297"/>
     <use xlink:href="#Arial-BoldMT-39" x="564.0625"/>
     <use xlink:href="#Arial-BoldMT-35" x="619.677734"/>
     <use xlink:href="#Arial-BoldMT-35" x="675.292969"/>
    </g>
    <!-- samples = 538 -->
    <g transform="translate(1025.51875 102.69625) scale(0.16 -0.16)">
     <use xlink:href="#Arial-BoldMT-73"/>
     <use xlink:href="#Arial-BoldMT-61" x="55.615234"/>
     <use xlink:href="#Arial-BoldMT-6d" x="111.230469"/>
     <use xlink:href="#Arial-BoldMT-70" x="200.146484"/>
     <use xlink:href="#Arial-BoldMT-6c" x="261.230469"/>
     <use xlink:href="#Arial-BoldMT-65" x="289.013672"/>
     <use xlink:href="#Arial-BoldMT-73" x="344.628906"/>
     <use xlink:href="#Arial-BoldMT-20" x="400.244141"/>
     <use xlink:href="#Arial-BoldMT-3d" x="428.027344"/>
     <use xlink:href="#Arial-BoldMT-20" x="486.425781"/>
     <use xlink:href="#Arial-BoldMT-35" x="514.208984"/>
     <use xlink:href="#Arial-BoldMT-33" x="569.824219"/>
     <use xlink:href="#Arial-BoldMT-38" x="625.439453"/>
    </g>
    <!-- value = [336, 202] -->
    <g transform="translate(1013.9625 119.65375) scale(0.16 -0.16)">
     <use xlink:href="#Arial-BoldMT-76"/>
     <use xlink:href="#Arial-BoldMT-61" x="55.615234"/>
     <use xlink:href="#Arial-BoldMT-6c" x="111.230469"/>
     <use xlink:href="#Arial-BoldMT-75" x="139.013672"/>
     <use xlink:href="#Arial-BoldMT-65" x="200.097656"/>
     <use xlink:href="#Arial-BoldMT-20" x="255.712891"/>
     <use xlink:href="#Arial-BoldMT-3d" x="283.496094"/>
     <use xlink:href="#Arial-BoldMT-20" x="341.894531"/>
     <use xlink:href="#Arial-BoldMT-5b" x="369.677734"/>
     <use xlink:href="#Arial-BoldMT-33" x="402.978516"/>
     <use xlink:href="#Arial-BoldMT-33" x="458.59375"/>
     <use xlink:href="#Arial-BoldMT-36" x="514.208984"/>
     <use xlink:href="#Arial-BoldMT-2c" x="569.824219"/>
     <use xlink:href="#Arial-BoldMT-20" x="597.607422"/>
     <use xlink:href="#Arial-BoldMT-32" x="625.390625"/>
     <use xlink:href="#Arial-BoldMT-30" x="681.005859"/>
     <use xlink:href="#Arial-BoldMT-32" x="736.621094"/>
     <use xlink:href="#Arial-BoldMT-5d" x="792.236328"/>
    </g>
   </g>
  </g>
 </g>
</svg>
